<?xml version="1.0" standalone="no"?>
<!DOCTYPE svg PUBLIC "-//W3C//DTD SVG 20010904//EN"
 "http://www.w3.org/TR/2001/REC-SVG-20010904/DTD/svg10.dtd">
<svg version="1.0" xmlns="http://www.w3.org/2000/svg"
 width="368.000000pt" height="388.000000pt" viewBox="0 0 368.000000 388.000000"
 preserveAspectRatio="xMidYMid meet">

<g transform="translate(0.000000,388.000000) scale(0.100000,-0.100000)"
fill="#000000" stroke="none">
<path d="M2913 1626 c-78 -57 -102 -91 -142 -196 -17 -47 -40 -107 -51 -135
-10 -27 -29 -81 -41 -120 -12 -38 -35 -99 -51 -133 -15 -35 -28 -69 -28 -75 0
-7 -11 -34 -25 -62 -13 -27 -25 -53 -25 -57 0 -3 -16 -40 -35 -81 -81 -176
-231 -225 -420 -137 -80 37 -140 50 -133 30 6 -19 75 -54 168 -85 103 -34 216
-39 269 -12 53 27 120 80 127 102 4 11 22 50 40 88 18 37 30 67 28 67 -2 0 2
15 10 34 8 19 12 37 8 40 -3 3 0 6 6 6 7 0 12 9 12 20 0 11 9 37 20 58 11 22
23 50 25 63 3 13 9 25 15 27 5 2 10 12 10 22 0 10 4 21 9 25 5 3 13 19 16 36
4 17 16 47 27 65 11 19 17 34 12 34 -4 0 0 8 9 18 9 9 17 28 19 42 2 14 7 31
11 38 5 6 5 12 0 12 -4 0 -3 4 4 8 6 4 13 19 15 34 2 15 7 30 10 34 4 3 4 12
1 20 -3 8 -1 14 4 14 6 0 20 20 33 45 14 27 34 50 51 57 16 7 29 18 29 24 0 7
9 14 21 17 14 4 18 10 13 18 -5 9 -2 10 9 6 15 -6 31 15 20 27 -14 14 -43 3
-100 -38z"/>
<path d="M2287 1625 c-4 -9 10 -28 36 -50 l41 -36 -27 -25 c-43 -40 -68 -99
-65 -152 3 -40 7 -48 30 -56 22 -8 34 -5 63 15 38 26 85 107 85 146 0 21 4 24
38 21 51 -4 49 21 -3 37 -51 15 -124 57 -155 90 -27 29 -36 31 -43 10z"/>
<path d="M2884 1378 c-4 -7 1 -17 12 -24 59 -39 57 -37 33 -68 -30 -38 -51
-120 -39 -151 30 -79 142 -7 172 111 12 44 16 49 43 50 45 3 45 3 45 19 0 10
-10 15 -33 15 -41 0 -188 37 -201 50 -13 13 -23 13 -32 -2z"/>
<path d="M1496 691 c-12 -18 18 -66 74 -118 30 -29 61 -53 68 -53 6 0 12 -4
12 -9 0 -5 14 -14 30 -20 17 -5 30 -14 30 -19 0 -14 48 -24 67 -14 13 8 12 11
-8 26 -13 9 -27 16 -32 16 -20 0 -107 68 -169 132 -36 38 -69 65 -72 59z"/>
</g>
</svg>
