<?xml version="1.0" standalone="no"?>
<!DOCTYPE svg PUBLIC "-//W3C//DTD SVG 20010904//EN"
 "http://www.w3.org/TR/2001/REC-SVG-20010904/DTD/svg10.dtd">
<svg version="1.0" xmlns="http://www.w3.org/2000/svg"
 width="368.000000pt" height="321.000000pt" viewBox="0 0 368.000000 321.000000"
 preserveAspectRatio="xMidYMid meet">

<g transform="translate(0.000000,321.000000) scale(0.100000,-0.100000)"
fill="#000000" stroke="none">
<path d="M3263 3196 c-51 -23 -123 -105 -155 -176 -87 -190 -171 -352 -212
-408 -25 -34 -74 -83 -108 -108 -129 -96 -315 -160 -385 -133 -28 10 -27 11
57 52 91 45 112 66 94 95 -8 12 -27 18 -71 20 l-60 3 13 67 c31 159 0 243 -79
213 -58 -22 -102 -133 -95 -238 3 -38 8 -76 12 -85 5 -11 0 -21 -16 -32 -22
-14 -29 -14 -69 -1 -186 63 -509 -3 -509 -105 0 -35 24 -54 92 -70 37 -10 71
-9 170 4 68 9 127 16 131 16 4 0 -20 -36 -53 -81 -77 -103 -117 -173 -163
-279 -76 -179 -136 -383 -171 -592 -6 -34 -12 -39 -99 -82 -159 -79 -313 -99
-437 -56 -153 52 -275 136 -371 257 -87 109 -138 219 -236 501 -18 52 -58 76
-128 76 -100 0 -156 -58 -177 -182 -11 -64 -16 -75 -39 -88 -20 -10 -30 -26
-39 -62 -9 -32 -20 -52 -34 -58 -27 -12 -32 -41 -11 -63 15 -17 14 -19 -5 -24
-31 -8 -37 -37 -12 -58 26 -20 27 -32 7 -49 -21 -17 -19 -48 5 -62 17 -11 20
-24 20 -80 0 -66 -1 -68 -46 -119 -70 -79 -95 -160 -75 -237 25 -90 77 -122
206 -123 69 -1 93 3 128 21 134 69 174 195 96 305 -53 73 -61 94 -67 160 -4
57 -2 64 22 88 26 26 32 50 20 81 -3 9 -12 16 -19 16 -23 0 -29 22 -11 36 25
18 17 57 -14 64 -21 5 -22 7 -7 13 24 9 22 48 -3 54 -14 4 -20 14 -20 33 0 37
-29 70 -63 72 -28 2 -28 4 -22 48 21 150 81 213 184 195 50 -8 75 -37 96 -107
21 -74 77 -213 122 -302 102 -205 243 -333 462 -419 136 -54 296 -39 469 43
l83 40 -5 -78 c-3 -42 -8 -117 -11 -167 -6 -81 -9 -92 -32 -110 -16 -14 -26
-33 -28 -55 -2 -19 -3 -38 -4 -41 -1 -4 -12 -10 -26 -13 -32 -8 -35 -51 -5
-59 27 -7 25 -21 -6 -35 -32 -15 -30 -55 4 -60 25 -4 29 -20 7 -28 -19 -8 -20
-60 -1 -71 12 -7 13 -23 8 -85 -7 -71 -11 -79 -49 -121 -62 -67 -77 -102 -78
-178 0 -53 4 -72 25 -101 33 -48 64 -65 147 -79 58 -10 78 -9 124 4 70 21 130
73 157 134 38 90 33 124 -24 182 -53 52 -60 71 -69 179 l-7 77 31 17 c38 21
39 45 4 75 l-28 23 24 18 c31 25 25 56 -12 60 -29 4 -36 19 -12 28 18 7 20 41
3 46 -7 3 -22 22 -33 44 -16 30 -28 41 -58 48 l-37 10 0 85 c0 47 5 127 10
176 10 87 12 91 47 120 102 82 185 160 212 198 212 296 291 444 371 689 21 65
41 122 44 127 4 5 21 5 43 0 64 -14 158 7 270 61 130 64 214 140 284 257 27
46 49 86 49 88 0 5 86 188 126 270 42 85 131 165 183 165 48 0 86 -33 105 -92
3 -9 6 -130 7 -268 l1 -251 -33 -17 c-26 -13 -37 -28 -49 -64 -8 -27 -20 -48
-27 -48 -7 0 -18 -10 -24 -22 -10 -18 -8 -24 9 -39 l22 -17 -25 -16 c-31 -20
-33 -52 -4 -59 20 -5 20 -7 5 -29 -21 -30 -20 -44 5 -69 18 -18 21 -30 17 -89
-3 -64 -6 -71 -47 -115 -58 -63 -84 -125 -84 -198 1 -68 17 -96 76 -135 37
-24 51 -27 127 -27 58 0 100 6 132 18 50 19 123 90 133 129 20 78 8 127 -43
180 -31 33 -37 48 -53 135 -16 91 -16 99 -1 111 45 34 53 45 50 65 -2 14 -11
23 -25 25 -26 4 -32 37 -8 46 18 7 20 63 3 68 -7 3 -12 18 -13 34 0 22 -5 30
-22 32 -18 3 -23 10 -23 32 0 30 -33 70 -57 70 -15 0 -16 16 -17 310 -1 224
-9 262 -60 295 -35 23 -95 28 -133 11z m-847 -422 c16 -38 15 -75 -6 -182 -11
-54 -17 -65 -39 -73 -14 -5 -34 -14 -43 -19 -26 -14 -26 -14 -38 32 -12 43 -6
142 12 188 16 42 58 90 79 90 14 0 25 -12 35 -36z m119 -263 c3 -5 -3 -17 -12
-27 -20 -19 -122 -68 -129 -62 -5 6 16 69 29 86 11 14 103 17 112 3z m-160
-57 c-7 -25 -16 -48 -18 -51 -5 -4 -47 50 -47 62 0 6 58 34 72 35 4 0 1 -21
-7 -46z m-269 0 c44 -9 83 -20 88 -24 8 -8 -46 -63 -80 -83 -20 -12 -242 -47
-289 -46 -50 1 -105 20 -119 42 -23 37 33 77 149 107 88 24 151 24 251 4z
m195 -15 c10 -19 9 -20 -13 -14 -32 10 -35 15 -18 25 19 12 18 13 31 -11z
m-31 -38 l34 -19 -59 -12 c-33 -7 -66 -15 -75 -18 -8 -3 1 11 19 31 19 21 37
37 40 37 4 -1 22 -9 41 -19z m70 -40 c0 -6 -13 -47 -29 -93 -16 -46 -37 -108
-46 -138 -40 -133 -164 -350 -316 -556 -37 -51 -188 -197 -222 -216 -17 -9
-18 -6 -12 39 25 171 143 527 221 665 42 74 137 208 168 237 13 12 63 31 117
45 107 28 119 30 119 17z m1124 -218 c3 -32 8 -102 12 -155 l6 -98 -26 0 -25
0 0 147 c0 80 2 150 5 155 13 21 22 4 28 -49z m66 52 c0 -3 7 -49 16 -103 13
-86 19 -101 48 -132 45 -47 56 -71 56 -122 0 -31 -8 -57 -29 -90 -76 -120
-296 -138 -381 -31 -19 24 -22 37 -18 93 6 76 20 108 82 180 43 51 45 56 48
124 3 69 4 71 31 74 l27 3 0 -147 0 -147 -35 -38 c-36 -41 -46 -85 -21 -95 27
-10 53 15 65 61 10 38 15 45 36 45 21 0 25 -5 25 -28 0 -27 15 -52 31 -52 4 0
15 7 23 16 14 14 14 18 1 45 -9 16 -19 29 -24 29 -4 0 -11 62 -15 138 -4 75
-10 147 -13 160 -4 18 -1 22 21 22 14 0 26 -2 26 -5z m-130 -354 c0 -5 -5 -22
-10 -37 -7 -18 -14 -24 -21 -17 -6 6 -6 19 0 36 10 26 31 38 31 18z m120 -6
c0 -8 -4 -15 -10 -15 -5 0 -10 7 -10 15 0 8 5 15 10 15 6 0 10 -7 10 -15z
m-3163 -397 c-3 -7 -5 -2 -5 12 0 14 2 19 5 13 2 -7 2 -19 0 -25z m-147 -193
c0 -88 -4 -155 -9 -155 -18 0 -71 -52 -71 -70 0 -10 7 -23 15 -30 13 -11 20
-10 42 7 15 10 31 32 36 49 17 49 47 55 47 9 0 -23 23 -55 40 -55 16 0 40 31
40 51 0 12 -13 27 -30 37 l-30 17 0 148 0 147 24 0 c22 0 25 -5 32 -57 9 -78
27 -124 59 -159 33 -34 55 -83 55 -119 0 -64 -53 -140 -125 -178 -32 -17 -56
-21 -117 -20 -132 2 -188 49 -188 161 0 68 18 110 74 170 46 49 46 50 46 119
0 38 2 72 4 74 3 3 16 5 30 7 l26 2 0 -155z m60 36 c0 -130 -7 -181 -24 -181
-8 0 -11 42 -10 138 2 170 1 162 19 162 12 0 15 -20 15 -119z m-80 -260 c-13
-25 -26 -27 -34 -6 -3 9 4 25 17 38 19 19 22 20 25 5 2 -9 -2 -26 -8 -37z
m133 37 c5 -16 -2 -38 -13 -38 -4 0 -10 11 -12 25 -5 26 16 37 25 13z m1462
-578 c12 -106 15 -114 67 -159 47 -41 57 -85 34 -146 -46 -120 -153 -174 -287
-146 -119 26 -170 141 -112 256 9 16 35 51 59 77 38 41 44 53 46 95 0 26 2 53
3 58 2 6 3 17 4 26 0 9 12 19 26 21 l25 5 0 -150 0 -150 -36 -39 c-38 -42 -42
-73 -11 -92 24 -15 53 19 62 74 9 51 38 56 51 9 12 -40 37 -58 62 -43 28 18
21 56 -15 79 l-32 20 -1 153 c0 153 0 153 22 150 21 -3 24 -11 33 -98z m-75
-60 c0 -142 -1 -150 -19 -150 -19 0 -20 8 -18 150 2 135 4 150 20 150 15 0 17
-14 17 -150z m60 -199 c7 -13 7 -22 0 -26 -15 -9 -30 4 -30 26 0 25 16 25 30
0z m-130 -17 c0 -8 -5 -25 -11 -36 -16 -29 -31 -3 -16 29 12 26 27 31 27 7z"/>
</g>
</svg>
