<?xml version="1.0" standalone="no"?>
<!DOCTYPE svg PUBLIC "-//W3C//DTD SVG 20010904//EN"
 "http://www.w3.org/TR/2001/REC-SVG-20010904/DTD/svg10.dtd">
<svg version="1.0" xmlns="http://www.w3.org/2000/svg"
 width="368.000000pt" height="470.000000pt" viewBox="0 0 368.000000 470.000000"
 preserveAspectRatio="xMidYMid meet">

<g transform="translate(0.000000,470.000000) scale(0.100000,-0.100000)"
fill="#000000" stroke="none">
<path d="M1630 4659 c-30 -16 -57 -34 -60 -38 -3 -5 -25 -20 -50 -33 -25 -13
-111 -80 -190 -148 -80 -68 -152 -130 -161 -137 -16 -14 -316 -93 -351 -93
-18 0 -85 -24 -228 -82 -98 -40 -296 -167 -434 -278 -43 -35 -79 -77 -93 -110
-47 -107 -59 -265 -28 -376 19 -66 107 -223 169 -299 65 -81 166 -172 235
-212 35 -20 69 -42 75 -48 30 -30 184 -125 266 -165 128 -61 311 -73 473 -32
115 30 109 24 227 239 124 228 135 256 266 673 30 95 76 200 89 200 10 0 198
-76 240 -97 78 -40 205 -126 266 -182 95 -85 152 -191 165 -306 3 -27 11 -79
19 -115 31 -149 59 -367 70 -540 9 -142 12 -168 31 -255 12 -53 18 -129 19
-225 2 -295 14 -585 30 -758 8 -83 8 -484 1 -520 -7 -28 -12 -32 -39 -33 -18
0 -50 -2 -72 -5 -22 -2 -105 -6 -185 -8 -80 -2 -155 -6 -167 -9 -19 -5 -241
-34 -308 -40 -13 -1 -21 5 -23 18 -2 12 -13 33 -25 49 l-23 28 -79 -12 c-44
-7 -87 -16 -96 -21 -11 -5 -19 -28 -23 -63 -7 -54 -8 -55 -44 -61 -20 -4 -57
-10 -82 -16 -25 -5 -72 -13 -105 -18 -110 -16 -229 -42 -310 -67 -61 -19 -96
-38 -143 -77 l-63 -52 5 -75 c7 -121 21 -144 107 -184 83 -37 115 -45 229 -51
231 -13 916 -7 997 9 11 3 74 10 139 16 66 7 121 13 124 15 3 2 39 6 80 10
117 10 288 34 330 45 21 6 87 12 147 15 267 12 457 46 514 93 17 15 49 51 71
79 42 57 43 82 8 133 -10 14 -23 44 -30 67 -15 48 -34 64 -117 94 -32 12 -62
25 -68 29 -19 13 -180 59 -225 64 -25 3 -79 8 -120 12 -41 4 -80 11 -86 16
-12 9 -30 95 -38 183 -7 70 -28 553 -31 715 -4 188 -13 353 -24 430 -5 36 -12
101 -16 145 -7 97 -20 225 -41 405 -16 142 -16 144 -34 230 -6 30 -14 66 -16
80 -3 14 -11 54 -19 90 -8 36 -19 92 -25 125 -21 111 -72 269 -107 337 -27 52
-59 89 -154 177 -66 62 -134 118 -152 125 -220 94 -298 126 -311 126 -23 0
-20 15 12 52 44 50 132 192 142 230 19 63 12 160 -14 214 -40 83 -166 199
-297 273 -77 43 -159 43 -239 0z m220 -37 c83 -48 145 -95 212 -164 77 -78 92
-116 86 -218 -3 -54 -10 -74 -41 -123 -20 -31 -37 -60 -37 -64 0 -18 -238
-293 -254 -293 -3 0 -6 7 -6 15 0 22 -47 112 -79 152 -47 61 -292 253 -321
253 -5 0 -31 13 -59 29 -27 16 -70 35 -96 43 -26 7 -46 18 -44 23 2 6 53 53
114 106 320 277 399 313 525 241z m-610 -406 c127 -46 229 -108 360 -220 90
-76 137 -137 166 -212 16 -43 16 -46 -5 -102 -13 -31 -36 -100 -53 -152 -101
-322 -134 -414 -173 -490 -76 -150 -98 -190 -105 -190 -4 0 -12 19 -19 43 -13
42 -87 191 -106 213 -5 6 -21 30 -35 53 -41 70 -112 154 -170 205 -30 26 -82
71 -115 100 -64 56 -126 100 -189 136 -125 70 -264 132 -356 159 -58 17 -119
36 -136 41 -17 6 -49 10 -72 10 -23 0 -42 2 -42 5 0 20 263 202 365 253 78 40
185 80 260 99 33 8 110 28 170 43 137 35 174 36 255 6z m-870 -487 c108 -31
160 -49 218 -76 32 -15 43 -33 19 -33 -18 0 -118 -51 -151 -77 -36 -29 -56
-97 -56 -193 0 -66 4 -86 30 -138 42 -82 98 -137 183 -178 62 -30 81 -34 148
-34 90 0 155 23 207 73 47 45 86 127 99 207 3 19 7 37 9 39 10 10 144 -143
144 -164 0 -3 18 -30 40 -59 47 -62 114 -196 123 -246 7 -36 -13 -104 -43
-149 -25 -37 -151 -64 -300 -65 -116 -1 -131 1 -200 28 -41 17 -87 38 -102 48
-14 10 -29 18 -32 18 -3 0 -81 51 -173 113 -191 127 -270 202 -369 347 -79
117 -112 207 -109 299 1 37 7 82 13 101 6 19 16 54 21 76 12 45 43 73 96 84
53 12 78 9 185 -21z m363 -150 c62 -32 153 -95 228 -158 75 -63 86 -91 64
-164 -53 -175 -208 -250 -382 -185 -67 26 -157 109 -187 172 -25 53 -19 215 9
246 26 29 93 64 150 80 28 7 54 17 60 21 12 12 10 12 58 -12z m1939 -261 c-7
-7 -12 -8 -12 -2 0 6 3 14 7 17 3 4 9 5 12 2 2 -3 -1 -11 -7 -17z m-2 -322 c0
-2 -7 -7 -16 -10 -8 -3 -12 -2 -9 4 6 10 25 14 25 6z m-800 -2451 c9 -54 8
-71 -2 -80 -19 -18 -86 -30 -140 -27 l-48 3 1 69 c1 38 -2 73 -5 79 -4 5 -4
21 0 35 5 20 14 27 43 31 20 3 52 9 71 13 32 7 36 5 52 -24 10 -17 22 -62 28
-99z m1339 100 c74 -7 341 -104 341 -125 0 -18 -41 -40 -110 -60 -41 -11 -111
-32 -155 -46 -140 -43 -283 -63 -870 -124 -164 -17 -204 -20 -340 -26 -71 -3
-195 -9 -275 -12 -80 -4 -271 -4 -425 -1 -258 5 -284 7 -325 27 -25 12 -54 28
-64 36 -19 16 -19 16 5 42 49 52 139 78 444 130 17 3 46 9 65 14 19 4 58 11
86 15 l51 7 5 -51 c3 -28 11 -57 18 -66 22 -26 214 -15 243 14 8 8 11 40 10
85 l-2 73 57 7 c31 4 80 9 107 12 28 3 85 12 129 20 43 8 142 14 220 15 77 0
162 4 188 8 l47 8 -6 -27 c-3 -18 1 -33 12 -44 15 -14 30 -16 104 -11 47 3
104 10 126 16 60 16 145 57 145 70 0 8 19 9 63 5 34 -4 82 -9 106 -11z m396
-216 c15 -32 16 -44 7 -57 -7 -10 -16 -26 -21 -37 -13 -30 -88 -95 -109 -95
-10 0 -45 -7 -77 -16 -33 -8 -87 -17 -120 -20 -33 -3 -70 -7 -82 -9 -11 -3
-72 -7 -135 -10 -62 -3 -135 -10 -163 -16 -60 -12 -74 -14 -235 -33 -69 -9
-143 -18 -165 -21 -22 -3 -83 -10 -135 -16 -52 -6 -97 -12 -100 -14 -3 -2 -73
-6 -155 -9 -83 -4 -195 -9 -250 -13 -112 -7 -402 -5 -604 3 -143 6 -255 33
-293 72 -21 20 -37 104 -28 141 5 21 7 22 19 7 25 -30 110 -65 188 -76 78 -12
798 -8 853 3 14 3 88 8 165 11 77 3 160 8 185 11 25 2 68 7 95 10 28 3 97 10
155 15 343 32 552 64 705 109 55 16 132 39 171 50 40 12 77 28 84 36 19 23 25
19 45 -26z"/>
</g>
</svg>
