<?xml version="1.0" standalone="no"?>
<!DOCTYPE svg PUBLIC "-//W3C//DTD SVG 20010904//EN"
 "http://www.w3.org/TR/2001/REC-SVG-20010904/DTD/svg10.dtd">
<svg version="1.0" xmlns="http://www.w3.org/2000/svg"
 width="368.000000pt" height="213.000000pt" viewBox="0 0 368.000000 213.000000"
 preserveAspectRatio="xMidYMid meet">

<g transform="translate(0.000000,213.000000) scale(0.100000,-0.100000)"
fill="#000000" stroke="none">
<path d="M849 2125 c-3 -2 -102 -9 -220 -15 -117 -5 -230 -14 -249 -19 -19 -5
-71 -12 -115 -16 -115 -8 -137 -14 -168 -43 -39 -37 -46 -73 -51 -285 -3 -103
-8 -192 -11 -197 -3 -4 -6 -39 -6 -77 0 -37 -5 -90 -11 -118 -9 -48 -12 -269
-4 -310 2 -11 7 -63 10 -115 12 -168 27 -240 67 -321 42 -84 77 -120 159 -158
l55 -26 543 2 543 2 32 -27 c93 -80 159 -149 245 -255 133 -166 164 -177 176
-60 6 66 36 411 36 425 0 17 98 27 325 33 178 5 276 12 505 36 222 22 476 38
630 39 180 1 225 8 257 42 33 35 43 72 43 156 1 42 7 106 15 142 20 93 19 196
-5 272 -23 75 -39 181 -34 223 19 164 22 144 -44 278 -33 67 -68 147 -77 177
-9 30 -22 66 -29 80 -14 31 -67 67 -116 80 -56 15 -216 15 -285 1 -69 -15
-275 -8 -444 14 -69 9 -224 14 -455 15 -811 4 -1164 8 -1206 14 -25 4 -59 9
-76 12 -17 2 -33 2 -35 -1z m131 -56 c41 -5 406 -11 810 -14 404 -2 751 -6
770 -9 216 -32 405 -42 495 -24 39 7 113 12 165 11 112 -3 190 -33 208 -81 5
-15 24 -67 42 -117 18 -49 49 -117 68 -150 39 -64 39 -65 33 -250 -2 -73 2
-107 24 -182 29 -104 32 -192 7 -296 -8 -37 -12 -84 -8 -117 4 -41 0 -65 -13
-95 -32 -72 -41 -74 -267 -76 -93 0 -216 -5 -274 -9 -171 -14 -353 -30 -385
-35 -102 -13 -278 -25 -388 -26 -157 -1 -351 -16 -392 -29 l-31 -10 -13 -153
c-7 -83 -15 -191 -18 -239 -3 -49 -9 -88 -13 -88 -11 0 -104 102 -150 165 -44
58 -74 87 -188 179 l-82 67 -88 -5 c-48 -2 -272 -8 -498 -12 -400 -7 -412 -7
-480 14 -87 27 -141 72 -184 154 -64 123 -89 492 -57 851 9 104 17 236 17 293
0 185 23 228 128 238 31 3 111 12 177 21 66 8 192 17 280 20 87 3 161 8 164
11 7 7 59 4 141 -7z"/>
</g>
</svg>
