<?xml version="1.0" standalone="no"?>
<!DOCTYPE svg PUBLIC "-//W3C//DTD SVG 20010904//EN"
 "http://www.w3.org/TR/2001/REC-SVG-20010904/DTD/svg10.dtd">
<svg version="1.0" xmlns="http://www.w3.org/2000/svg"
 width="368.000000pt" height="452.000000pt" viewBox="0 0 368.000000 452.000000"
 preserveAspectRatio="xMidYMid meet">

<g transform="translate(0.000000,452.000000) scale(0.100000,-0.100000)"
fill="#000000" stroke="none">
<path d="M1510 4479 c-152 -13 -357 -58 -465 -103 -275 -113 -565 -334 -700
-535 -27 -41 -67 -100 -88 -130 -40 -59 -47 -74 -104 -211 -80 -197 -97 -275
-108 -515 -10 -216 11 -336 109 -635 32 -100 43 -124 92 -200 99 -158 157
-237 243 -337 33 -40 41 -43 106 -52 39 -6 117 -13 175 -16 58 -3 123 -10 145
-15 22 -5 76 -12 120 -16 106 -10 790 -11 1035 -2 379 14 915 86 953 128 7 7
8 10 2 8 -9 -5 -100 -15 -205 -22 -19 -2 -43 -7 -54 -11 -16 -7 -17 -5 -11 14
7 24 -9 51 -30 51 -14 0 -9 -36 7 -57 9 -11 -13 -19 -79 -28 -15 -2 -58 -10
-95 -18 -61 -13 -67 -13 -73 2 -6 14 -8 14 -20 -2 -11 -15 -13 -15 -18 -2 -4
10 1 17 18 21 15 4 22 11 18 20 -3 8 0 14 6 14 6 0 11 -9 11 -21 0 -11 4 -18
9 -15 5 3 7 15 4 25 -3 10 0 22 6 25 6 4 11 1 11 -7 0 -13 4 -13 25 -4 25 12
34 41 16 52 -5 3 -17 -2 -25 -11 -15 -14 -16 -14 -16 0 0 9 7 17 15 17 28 3
31 4 49 21 15 16 19 16 32 4 8 -8 11 -22 8 -33 -7 -17 -6 -17 12 0 16 15 17
19 5 26 -8 5 -11 16 -8 24 4 11 -1 17 -14 19 -20 3 -20 3 -1 23 10 11 27 33
36 48 10 15 22 25 26 22 4 -3 11 3 14 12 6 14 8 14 21 -3 8 -10 14 -23 15 -29
0 -5 -4 -5 -8 2 -4 7 -13 9 -21 4 -11 -7 -8 -14 10 -32 14 -14 24 -18 27 -11
2 7 11 12 19 12 11 0 9 -6 -8 -21 -17 -14 -20 -22 -11 -26 10 -4 9 -8 -5 -18
-14 -11 -15 -15 -4 -29 7 -8 16 -15 19 -14 20 2 32 -4 32 -16 0 -32 19 -24 38
16 18 38 18 45 5 65 -9 13 -19 21 -23 18 -4 -3 -10 4 -13 15 -3 13 2 25 16 36
21 14 21 15 4 25 -14 8 -17 18 -12 41 5 20 3 33 -5 38 -15 9 -50 1 -50 -11 0
-5 -8 -9 -17 -9 -14 0 -15 2 -4 9 9 6 10 11 2 15 -6 4 -11 18 -11 30 0 16 -5
23 -17 22 -12 -1 -17 8 -19 36 -3 35 -1 37 17 25 10 -6 19 -20 19 -29 0 -10 6
-18 14 -18 8 0 18 -9 21 -20 4 -11 11 -18 16 -14 6 3 8 8 5 11 -2 2 4 13 15
24 18 18 21 18 50 3 30 -15 31 -15 24 4 -3 11 -1 23 5 27 5 3 10 1 10 -4 0 -6
7 -11 15 -11 23 0 18 -15 -10 -30 -14 -7 -25 -17 -25 -22 0 -4 -6 -8 -14 -8
-8 0 -17 -7 -20 -16 -9 -24 -1 -28 18 -9 9 9 16 13 16 9 0 -3 7 0 17 7 15 13
16 11 11 -13 -6 -32 -1 -35 19 -10 10 12 16 14 19 5 9 -20 34 -15 34 6 0 10
12 27 28 37 23 15 25 15 13 1 -10 -13 -10 -17 -1 -17 7 0 2 -9 -11 -20 l-24
-19 32 -1 c28 0 34 4 39 28 3 15 7 32 9 39 2 7 0 15 -5 18 -6 4 -10 2 -10 -3
0 -5 -12 -9 -26 -9 -17 0 -24 4 -20 13 4 12 1 12 -14 4 -11 -6 -25 -8 -30 -5
-6 4 -9 3 -8 -2 2 -4 -1 -8 -7 -8 -5 0 -9 4 -7 9 2 5 -5 18 -15 30 -11 13 -12
17 -3 10 22 -16 73 -12 77 6 3 11 2 11 -4 3 -6 -8 -14 -9 -23 -3 -11 7 -12 10
-2 10 7 0 11 4 7 10 -3 5 0 19 7 30 16 26 0 39 -43 34 -32 -4 -34 0 -17 39 15
32 28 35 28 8 0 -25 16 -36 23 -17 3 8 2 16 -4 18 -5 2 4 18 21 36 29 32 29
34 10 39 -11 3 -18 9 -15 13 6 9 40 7 67 -5 9 -4 22 -4 28 0 5 3 13 -1 16 -9
3 -9 10 -13 15 -10 5 3 17 -8 27 -25 9 -17 25 -31 35 -31 12 0 16 -4 10 -12
-4 -7 -8 -24 -8 -38 0 -14 -4 -25 -10 -25 -5 0 -9 12 -7 27 4 34 -13 44 -31
18 -21 -30 -10 -69 22 -77 14 -3 29 -11 33 -17 4 -7 9 -4 13 6 6 15 8 15 25
-2 9 -9 20 -24 23 -31 4 -10 6 -10 6 -1 1 6 7 12 15 12 8 0 17 7 20 16 9 22 7
31 -3 16 -5 -9 -10 -1 -14 24 -6 38 5 66 17 45 4 -6 2 -11 -5 -11 -8 0 -8 -4
1 -15 20 -25 65 124 79 260 26 253 25 339 -4 494 -41 222 -146 475 -284 686
-40 60 -196 235 -256 285 -170 144 -207 168 -420 274 -157 79 -297 117 -515
139 -211 23 -256 25 -350 16z m301 -240 c73 -25 98 -74 60 -120 -32 -40 -82
-32 -136 21 -25 24 -45 49 -45 56 0 21 35 44 81 53 3 0 21 -4 40 -10z m-317
-30 c47 -13 86 -50 86 -82 0 -50 -77 -87 -228 -108 -73 -10 -246 -66 -287 -93
-11 -7 -47 -39 -78 -69 -66 -63 -110 -87 -161 -87 -81 0 -85 109 -6 207 49 62
82 85 201 144 170 84 361 119 473 88z m1776 -1238 c0 -17 -18 -21 -24 -6 -3 9
0 15 9 15 8 0 15 -4 15 -9z m0 -40 c0 -12 -28 -22 -34 -12 -3 5 -3 11 1 15 9
9 33 7 33 -3z m80 -57 c0 -8 -4 -12 -10 -9 -5 3 -10 10 -10 16 0 5 5 9 10 9 6
0 10 -7 10 -16z m0 -50 c0 -21 -3 -23 -19 -15 -10 6 -21 7 -25 4 -3 -3 -6 -1
-6 5 0 7 7 12 16 12 10 0 14 6 11 14 -4 10 -1 13 9 9 7 -3 14 -16 14 -29z
m-33 -30 c24 10 27 -24 4 -46 -12 -11 -25 -17 -28 -14 -3 3 -12 1 -20 -6 -20
-16 -28 -2 -15 27 7 15 8 27 2 30 -6 4 -5 11 2 19 10 11 15 10 27 -1 7 -8 20
-12 28 -9z m-287 -18 c0 -3 -4 -8 -10 -11 -5 -3 -10 -1 -10 4 0 6 5 11 10 11
6 0 10 -2 10 -4z m190 -44 c7 2 15 -3 18 -11 2 -8 0 -11 -6 -8 -15 10 -34 -20
-27 -43 3 -11 2 -20 -3 -20 -17 0 -23 -73 -7 -96 11 -16 11 -24 2 -34 -10 -10
-8 -12 7 -6 16 5 17 4 7 -8 -7 -8 -9 -21 -5 -28 4 -7 4 -10 -1 -6 -4 4 -14 3
-21 -2 -8 -8 -16 -6 -27 4 -8 8 -16 13 -18 11 -2 -2 -4 7 -4 21 0 15 5 23 14
21 8 -1 16 4 18 11 3 6 -2 12 -9 12 -11 0 -14 12 -13 44 2 48 11 69 26 61 12
-8 11 2 -1 26 -8 15 -7 25 7 43 10 13 21 20 24 14 3 -5 12 -8 19 -6z m100 -28
c0 -2 -9 -4 -21 -4 -11 0 -18 4 -14 10 5 8 35 3 35 -6z m-385 -54 c-3 -5 -11
-10 -16 -10 -6 0 -7 5 -4 10 3 6 11 10 16 10 6 0 7 -4 4 -10z m305 -23 c0 -7
-9 -18 -20 -25 -16 -10 -20 -10 -20 1 0 14 20 37 32 37 4 0 8 -6 8 -13z m-333
-29 c-3 -8 -6 -5 -6 6 -1 11 2 17 5 13 3 -3 4 -12 1 -19z m188 -16 c-8 -8 -25
10 -19 20 4 6 9 5 15 -3 4 -7 6 -15 4 -17z m-245 -2 c0 -5 -5 -10 -11 -10 -5
0 -7 5 -4 10 3 6 8 10 11 10 2 0 4 -4 4 -10z m477 -12 c-3 -8 -6 -5 -6 6 -1
11 2 17 5 13 3 -3 4 -12 1 -19z m-537 2 c0 -5 -4 -10 -10 -10 -5 0 -10 5 -10
10 0 6 5 10 10 10 6 0 10 -4 10 -10z m116 -28 c-23 -23 -31 -8 -9 17 10 13 19
17 22 10 2 -6 -4 -18 -13 -27z m372 21 c-2 -9 -10 -19 -18 -21 -12 -4 -13 -3
-3 10 7 8 10 18 6 21 -3 4 -1 7 6 7 7 0 11 -8 9 -17z m-420 -32 c-14 -23 -25
-26 -48 -11 -13 8 -12 10 3 10 9 0 17 4 17 9 0 9 30 20 38 15 2 -1 -3 -11 -10
-23z m182 25 c0 -3 -4 -8 -10 -11 -5 -3 -10 -1 -10 4 0 6 5 11 10 11 6 0 10
-2 10 -4z m272 -78 c-6 -6 -9 2 -7 24 5 45 7 48 12 14 3 -16 0 -33 -5 -38z
m-282 37 c-7 -8 -17 -15 -22 -15 -6 0 -5 7 2 15 7 8 17 15 22 15 6 0 5 -7 -2
-15z m-248 -50 c-3 -11 -7 -14 -10 -7 -2 7 -8 10 -13 6 -12 -7 -11 0 3 31 11
24 13 25 18 9 4 -10 5 -28 2 -39z m298 25 c0 -5 -4 -10 -9 -10 -6 0 -13 5 -16
10 -3 6 1 10 9 10 9 0 16 -4 16 -10z m88 -51 c11 -17 11 -24 1 -33 -9 -8 -10
-8 -4 3 5 9 0 20 -16 32 -16 13 -19 19 -9 19 8 0 21 -10 28 -21z m72 -10 c-7
-11 -9 -32 -6 -45 4 -14 2 -24 -4 -24 -5 0 -10 -5 -10 -11 0 -6 -6 -16 -13
-24 -11 -11 -15 -10 -25 6 -16 25 -15 29 8 29 11 0 20 7 20 15 0 8 -5 15 -11
15 -5 0 2 13 18 30 34 35 37 36 23 9z m66 5 c-3 -9 -6 -21 -6 -27 0 -7 -5 -4
-11 6 -11 18 -5 37 13 37 5 0 7 -7 4 -16z m-506 -9 c20 12 32 -7 13 -20 -17
-12 -16 -14 10 -20 39 -10 22 -22 -41 -27 l-52 -5 6 36 c9 49 12 53 35 41 11
-6 24 -8 29 -5z m85 -115 c-3 -5 -1 -10 4 -10 6 0 11 5 11 10 0 6 4 10 9 10 5
0 7 -9 4 -20 -3 -12 0 -20 8 -20 22 0 0 -13 -27 -16 -20 -2 -24 0 -16 8 8 8 6
16 -10 30 l-21 18 22 0 c12 0 19 -4 16 -10z m-80 -20 c0 -9 -7 -14 -17 -12
-12 2 -18 -4 -18 -15 -1 -16 -2 -16 -16 2 -11 15 -17 17 -23 7 -4 -7 -15 -10
-25 -6 -15 6 -15 8 4 21 12 8 27 12 35 9 8 -3 17 -1 21 5 9 15 39 6 39 -11z
m40 0 c3 -5 -1 -10 -10 -10 -9 0 -13 5 -10 10 3 6 8 10 10 10 2 0 7 -4 10 -10z
m-314 -23 c-13 -13 -26 -3 -16 12 3 6 11 8 17 5 6 -4 6 -10 -1 -17z m-4 -62
c-4 -8 -11 -15 -17 -15 -7 0 -7 6 0 21 13 23 26 19 17 -6z m122 -17 c-5 -10
-12 -18 -14 -18 -3 0 -5 8 -5 18 0 10 7 19 14 19 11 0 13 -5 5 -19z m49 -22
c-2 -1 -12 -8 -22 -16 -18 -14 -19 -14 -7 8 7 12 17 20 22 16 6 -3 9 -7 7 -8z
m-198 -42 c0 -8 5 -14 10 -14 6 0 10 7 10 15 0 8 8 15 17 15 13 0 14 -3 5 -12
-14 -14 -16 -32 -3 -24 5 4 7 -3 4 -14 -3 -13 0 -20 8 -20 10 0 10 -3 2 -11
-15 -15 -33 -3 -33 21 0 11 -10 20 -24 24 -18 4 -23 11 -19 26 6 22 23 18 23
-6z m99 -45 c-17 -10 -24 4 -14 29 6 16 7 16 17 -2 8 -14 7 -21 -3 -27z m186
31 c4 -6 2 -17 -4 -24 -6 -7 -9 -23 -6 -35 4 -19 2 -21 -11 -10 -8 6 -12 14
-9 17 3 3 0 11 -6 19 -9 10 -8 13 4 13 10 0 14 6 11 15 -7 17 11 21 21 5z
m-374 -43 c-10 -9 -11 -8 -5 6 3 10 9 15 12 12 3 -3 0 -11 -7 -18z m239 8 c-7
-9 -15 -13 -19 -10 -3 3 1 10 9 15 21 14 24 12 10 -5z m-287 -20 c-7 -21 -13
-19 -13 6 0 11 4 18 10 14 5 -3 7 -12 3 -20z m-18 -25 c3 -5 1 -10 -4 -10 -6
0 -11 5 -11 10 0 6 2 10 4 10 3 0 8 -4 11 -10z m215 2 c0 -4 8 -8 18 -8 9 -1
26 -5 36 -9 16 -7 18 -5 13 8 -3 9 -2 17 3 17 18 0 18 -16 -1 -40 l-19 -25
-20 25 -20 25 6 -32 c5 -26 3 -33 -10 -33 -9 0 -16 -4 -16 -10 0 -5 -4 -10
-10 -10 -5 0 -1 13 8 30 14 24 15 33 4 50 -7 12 -8 20 -2 20 5 0 10 -4 10 -8z
m-290 -77 c-7 -9 -15 -13 -18 -10 -3 2 1 11 8 20 7 9 15 13 18 10 3 -2 -1 -11
-8 -20z m230 -21 c0 -20 -3 -22 -13 -13 -7 7 -13 20 -13 29 0 10 6 16 13 13 7
-3 13 -16 13 -29z m310 16 c0 -5 -2 -10 -4 -10 -3 0 -8 5 -11 10 -3 6 -1 10 4
10 6 0 11 -4 11 -10z m-460 -41 c0 -10 -12 -11 -34 -3 -25 10 -19 22 9 16 14
-2 25 -8 25 -13z m-149 -27 c-6 -2 -8 -9 -5 -14 5 -7 2 -8 -5 -4 -7 5 -17 1
-25 -9 -11 -15 -12 -14 -12 4 0 12 6 21 13 21 7 0 13 7 13 16 0 14 2 14 16 3
10 -8 12 -15 5 -17z m289 -12 c0 -5 -5 -10 -11 -10 -5 0 -7 5 -4 10 3 6 8 10
11 10 2 0 4 -4 4 -10z m-65 -37 c-5 -10 -8 -21 -7 -25 3 -16 -29 -15 -38 2 -8
15 -6 23 12 40 25 23 45 12 33 -17z m-78 -6 c2 -14 -1 -17 -6 -9 -4 6 -16 18
-26 26 -19 13 -18 14 6 9 17 -3 25 -12 26 -26z m118 23 c3 -5 1 -10 -4 -10 -6
0 -11 5 -11 10 0 6 2 10 4 10 3 0 8 -4 11 -10z m-140 -50 c-3 -5 0 -10 9 -10
8 0 17 -6 19 -12 4 -10 8 -9 16 2 9 12 11 11 11 -9 0 -19 -4 -22 -22 -17 -13
3 -29 6 -35 6 -7 0 -13 7 -13 17 0 15 -1 15 -18 0 -22 -21 -32 -21 -32 -3 0 7
15 18 33 24 17 5 33 10 35 11 2 1 0 -3 -3 -9z m-75 -30 c0 -6 -3 -10 -7 -10
-5 0 -18 -3 -30 -6 -25 -7 -32 13 -11 34 12 12 48 -1 48 -18z m-75 -10 c-3 -5
-10 -10 -16 -10 -5 0 -9 5 -9 10 0 6 7 10 16 10 8 0 12 -4 9 -10z m252 4 c-3
-3 -12 -4 -19 -1 -8 3 -5 6 6 6 11 1 17 -2 13 -5z m-332 -14 c-3 -5 -14 -10
-23 -10 -15 0 -15 2 -2 10 20 13 33 13 25 0z"/>
<path d="M3276 2765 c-3 -8 -1 -15 4 -15 13 0 22 18 11 24 -5 3 -11 -1 -15 -9z"/>
<path d="M3161 2494 c0 -11 3 -14 6 -6 3 7 2 16 -1 19 -3 4 -6 -2 -5 -13z"/>
<path d="M3090 2406 c0 -9 5 -16 10 -16 6 0 10 4 10 9 0 6 -4 13 -10 16 -5 3
-10 -1 -10 -9z"/>
<path d="M3025 2400 c-3 -5 -2 -10 4 -10 5 0 13 5 16 10 3 6 2 10 -4 10 -5 0
-13 -4 -16 -10z"/>
<path d="M3010 2315 c-24 -13 -24 -14 -3 -12 12 1 25 7 27 14 6 16 7 16 -24
-2z"/>
<path d="M3080 2224 c0 -8 5 -12 10 -9 6 3 10 10 10 16 0 5 -4 9 -10 9 -5 0
-10 -7 -10 -16z"/>
<path d="M2816 2185 c-3 -9 0 -15 9 -15 16 0 20 16 6 24 -5 3 -11 -1 -15 -9z"/>
<path d="M3185 2165 c-19 -22 -53 -36 -41 -16 5 7 -14 21 -29 21 -6 0 1 -45 9
-58 4 -7 2 -12 -3 -12 -6 0 -11 -4 -11 -10 0 -20 27 -9 38 15 6 14 16 25 22
25 13 0 13 -27 0 -35 -5 -3 -10 -12 -10 -18 0 -7 13 8 29 31 17 26 27 52 24
63 -6 23 -4 24 -28 -6z"/>
<path d="M3049 2091 c-29 -29 -44 -61 -29 -61 6 0 10 5 10 11 0 6 9 8 20 4 14
-5 20 -2 20 10 0 9 5 13 10 10 6 -3 10 -2 10 4 0 5 -6 12 -12 14 -10 4 -10 8
1 15 7 5 9 12 5 15 -5 2 -21 -7 -35 -22z"/>
<path d="M2990 2092 c0 -10 -5 -23 -12 -30 -9 -9 -7 -12 9 -12 14 0 24 9 32
30 9 27 8 30 -10 30 -12 0 -19 -7 -19 -18z"/>
<path d="M2840 2090 c0 -6 7 -13 15 -17 24 -9 27 1 5 15 -13 8 -20 8 -20 2z"/>
<path d="M2940 2080 c8 -5 20 -10 25 -10 6 0 3 5 -5 10 -8 5 -19 10 -25 10 -5
0 -3 -5 5 -10z"/>
<path d="M3108 2058 c9 -9 7 -15 -6 -25 -16 -13 -15 -14 5 -10 12 3 24 0 26
-6 2 -6 6 -3 10 7 4 9 3 15 -2 11 -5 -3 -12 4 -16 15 -3 11 -11 20 -18 20 -8
0 -8 -3 1 -12z"/>
<path d="M2978 2033 c-10 -2 -18 -9 -18 -14 0 -6 8 -5 20 1 11 6 20 13 20 15
0 3 -1 4 -2 4 -2 -1 -11 -3 -20 -6z"/>
<path d="M2675 2009 c-4 -6 -5 -12 -2 -15 2 -3 7 2 10 11 7 17 1 20 -8 4z"/>
<path d="M3063 1968 c1 -14 5 -24 10 -21 13 8 7 -7 -19 -50 -15 -23 -20 -35
-12 -27 17 17 66 99 53 87 -5 -4 -14 3 -21 15 -12 23 -12 23 -11 -4z"/>
<path d="M2660 1950 c0 -5 7 -7 15 -4 8 4 15 8 15 10 0 2 -7 4 -15 4 -8 0 -15
-4 -15 -10z"/>
<path d="M2860 1936 c0 -2 7 -6 15 -10 8 -3 15 -1 15 4 0 6 -7 10 -15 10 -8 0
-15 -2 -15 -4z"/>
<path d="M2683 1915 c-18 -19 -16 -25 5 -22 17 2 22 8 22 27 0 14 -13 12 -27
-5z"/>
<path d="M2595 1900 c-3 -5 -2 -10 4 -10 5 0 13 5 16 10 3 6 2 10 -4 10 -5 0
-13 -4 -16 -10z"/>
<path d="M2918 1853 c7 -3 16 -2 19 1 4 3 -2 6 -13 5 -11 0 -14 -3 -6 -6z"/>
<path d="M2960 1616 l-55 -11 -7 -55 c-12 -97 -12 -451 0 -585 27 -314 107
-547 215 -627 90 -67 106 -73 212 -73 93 0 105 2 169 34 37 18 86 49 107 68
l38 35 -24 49 c-14 27 -30 49 -36 49 -6 0 -29 -13 -52 -28 -57 -39 -99 -52
-169 -52 -111 0 -167 45 -223 177 -47 113 -50 129 -81 408 -24 217 -25 253
-18 431 8 170 7 194 -6 193 -8 -1 -40 -6 -70 -13z"/>
<path d="M2688 1563 c6 -2 18 -2 25 0 6 3 1 5 -13 5 -14 0 -19 -2 -12 -5z"/>
<path d="M2599 1556 c-12 -12 -450 -55 -606 -60 l-43 -1 0 -66 c0 -36 3 -87 6
-113 6 -41 9 -46 32 -46 14 0 22 3 18 8 -4 4 -13 7 -19 7 -6 0 -12 18 -14 40
-1 22 -4 65 -6 96 l-5 56 62 8 c33 4 112 9 175 11 112 4 114 3 95 -15 -10 -10
-23 -16 -28 -13 -5 3 -6 0 -2 -6 4 -7 16 -12 28 -12 11 0 22 -8 25 -20 5 -20
23 -28 23 -10 0 6 15 11 33 11 24 1 26 3 9 6 -13 3 -21 10 -19 16 2 7 11 11
21 9 14 -2 20 8 18 29 -1 3 10 11 23 17 20 9 26 8 34 -5 6 -12 4 -21 -7 -29
-20 -15 -23 -61 -5 -68 9 -4 10 1 3 18 -8 21 0 49 14 47 24 -3 28 0 16 15 -22
25 7 41 105 57 52 9 75 15 54 16 -20 1 -38 -1 -40 -3z m-209 -50 c0 -3 -4 -8
-10 -11 -5 -3 -10 -1 -10 4 0 6 5 11 10 11 6 0 10 -2 10 -4z"/>
<path d="M687 1318 c-6 -246 -26 -439 -62 -610 -37 -175 -80 -238 -186 -273
-66 -22 -124 -16 -211 24 -37 17 -74 31 -82 31 -8 0 -24 -21 -36 -47 -19 -44
-20 -47 -3 -66 10 -11 61 -40 113 -65 90 -43 99 -45 182 -45 75 0 94 3 143 28
31 16 68 43 82 60 13 16 31 38 39 47 36 46 89 173 115 278 40 162 42 193 55
591 8 259 14 241 -87 253 l-56 7 -6 -213z"/>
<path d="M925 1480 c28 -16 66 -36 85 -45 19 -9 58 -27 85 -40 28 -13 67 -30
89 -39 58 -24 266 -70 306 -68 26 1 31 -1 20 -8 -12 -8 -11 -10 7 -10 12 0 25
5 28 10 3 6 13 10 21 10 9 0 22 7 30 15 12 12 12 15 2 15 -7 0 -19 -4 -27 -9
-18 -11 -41 -3 -41 14 0 14 29 29 38 20 3 -3 0 -5 -6 -5 -7 0 -12 -4 -12 -9 0
-19 50 2 56 25 7 29 32 21 29 -10 -3 -20 1 -22 28 -18 27 4 29 6 13 18 -17 12
-16 14 3 33 28 28 39 26 44 -6 2 -16 5 4 6 42 l1 71 -272 2 c-150 2 -327 7
-393 12 -66 5 -136 10 -155 10 l-35 0 50 -30z m792 -56 c-3 -3 -12 -4 -19 -1
-8 3 -5 6 6 6 11 1 17 -2 13 -5z m-202 -104 c3 -5 2 -10 -4 -10 -5 0 -13 5
-16 10 -3 6 -2 10 4 10 5 0 13 -4 16 -10z"/>
<path d="M1811 1493 l-64 -4 7 -87 c3 -48 11 -141 16 -207 5 -66 12 -219 15
-340 7 -255 31 -650 46 -748 l11 -68 69 4 c38 2 72 7 76 11 9 9 4 309 -7 436
-6 58 -14 186 -20 285 -13 226 -29 524 -34 635 -5 97 4 90 -115 83z"/>
<path d="M2505 1469 c-4 -6 -4 -13 -1 -16 3 -3 0 -13 -7 -21 -10 -13 -9 -14 9
-4 25 13 39 52 19 52 -8 0 -17 -5 -20 -11z"/>
<path d="M2210 1455 c0 -7 -7 -18 -15 -22 -9 -5 -12 -17 -9 -31 4 -12 10 -19
16 -16 5 3 6 15 2 27 -6 21 -6 21 13 5 18 -17 19 -16 19 17 0 22 -5 35 -13 35
-7 0 -13 -7 -13 -15z"/>
<path d="M2255 1431 c-3 -5 -1 -12 5 -16 6 -4 7 -11 4 -17 -4 -7 -2 -8 4 -4
14 9 16 46 3 46 -6 0 -12 -4 -16 -9z"/>
<path d="M2006 1415 c-7 -18 10 -28 29 -18 12 7 12 10 -4 20 -15 10 -20 9 -25
-2z"/>
<path d="M2140 1419 c0 -5 5 -7 10 -4 6 3 10 8 10 11 0 2 -4 4 -10 4 -5 0 -10
-5 -10 -11z"/>
<path d="M2104 1406 c-4 -9 -12 -15 -19 -12 -7 2 -21 -1 -31 -9 -10 -7 -23
-11 -29 -9 -5 2 -16 -5 -23 -16 -13 -21 -3 -27 15 -9 8 8 13 7 18 -1 9 -14 -3
-27 -30 -32 -17 -3 -15 -6 14 -21 34 -17 78 -25 54 -9 -9 6 -7 13 8 26 20 17
21 17 14 -3 -5 -18 -2 -21 20 -21 15 0 23 4 20 10 -4 6 5 7 23 4 39 -8 51 12
17 28 -19 9 -28 9 -37 0 -7 -7 -17 -12 -22 -12 -6 0 -4 5 4 10 13 9 12 12 -4
25 -20 15 -20 15 0 29 15 12 16 17 7 27 -10 10 -14 9 -19 -5z"/>
<path d="M2325 1390 c-3 -5 -1 -10 4 -10 6 0 11 5 11 10 0 6 -2 10 -4 10 -3 0
-8 -4 -11 -10z"/>
<path d="M2370 1380 c0 -5 5 -10 11 -10 5 0 7 5 4 10 -3 6 -8 10 -11 10 -2 0
-4 -4 -4 -10z"/>
<path d="M2264 1355 c24 -18 42 -19 52 -4 4 7 0 9 -14 5 -11 -4 -23 -2 -27 4
-3 5 -12 10 -18 10 -7 0 -3 -7 7 -15z"/>
<path d="M1733 1300 c0 -25 2 -35 4 -22 2 12 2 32 0 45 -2 12 -4 2 -4 -23z"/>
<path d="M1675 1270 c-3 -5 -1 -10 4 -10 6 0 11 5 11 10 0 6 -2 10 -4 10 -3 0
-8 -4 -11 -10z"/>
</g>
</svg>
